<svg id="Warstwa_1" data-name="Warstwa 1" xmlns="http://www.w3.org/2000/svg" viewBox="0 0 400 280"><defs><style>.cls-1{fill:#cbcbcb;}.cls-10,.cls-2,.cls-3,.cls-4,.cls-5{fill:#fff;}.cls-2{opacity:0.4;}.cls-3{opacity:0.2;}.cls-4{opacity:0.65;}.cls-6,.cls-7{fill:#ff9770;}.cls-10,.cls-7{isolation:isolate;font-family:SegoeUI-Bold, Segoe UI;font-weight:700;}.cls-7{font-size:60.98px;}.cls-8{letter-spacing:-0.02em;}.cls-9{letter-spacing:0em;}.cls-10{font-size:64.36px;}</style></defs><title>image-place-holder</title><rect class="cls-1" width="400" height="280"/><rect class="cls-2" x="143.96" y="98.5" width="15" height="75" rx="7.5" ry="7.5" transform="translate(140.53 -67.27) rotate(45)"/><rect class="cls-2" x="128.02" y="6.08" width="15" height="75" rx="7.5" ry="7.5" transform="translate(70.51 -83.07) rotate(45)"/><rect class="cls-2" x="320.46" y="105.52" width="15" height="75" rx="7.5" ry="7.5" transform="translate(197.19 -190.02) rotate(45)"/><rect class="cls-2" x="217.46" y="22.07" width="15" height="75" rx="7.5" ry="7.5" transform="translate(108.01 -141.63) rotate(45)"/><rect class="cls-3" x="37.3" y="22.07" width="15" height="75" rx="7.5" ry="7.5" transform="translate(55.24 -14.23) rotate(45)"/><rect class="cls-3" x="51.6" y="201.28" width="15" height="75" rx="7.5" ry="7.5" transform="translate(186.15 28.15) rotate(45)"/><rect class="cls-3" x="156.4" y="188.98" width="15" height="75" rx="7.5" ry="7.5" transform="translate(208.15 -49.56) rotate(45)"/><rect class="cls-3" x="235.38" y="105.52" width="15" height="75" rx="7.5" ry="7.5" transform="translate(172.27 -129.86) rotate(45)"/><rect class="cls-3" x="250.1" y="201.28" width="15" height="75" rx="7.5" ry="7.5" transform="translate(244.29 -112.21) rotate(45)"/><rect class="cls-3" x="315.6" y="6.08" width="15" height="75" rx="7.5" ry="7.5" transform="translate(125.45 -215.7) rotate(45)"/><rect class="cls-4" x="344.01" y="188.98" width="15" height="75" rx="7.5" ry="7.5" transform="translate(263.1 -182.22) rotate(45)"/><path class="cls-5" d="M106.78,107.51v45.73h-.06s-32.75-13.13-66.45,0V107.51Z"/><polygon class="cls-5" points="107.72 148.37 107.72 148.38 107.66 148.38 107.72 148.37"/><circle class="cls-5" cx="73.59" cy="101.79" r="21.72"/><circle class="cls-5" cx="49.78" cy="111.05" r="19.4"/><circle class="cls-5" cx="97.39" cy="111.05" r="19.4"/><g id="Layer_2" data-name="Layer 2"><path class="cls-6" d="M48,199.93c7.3,0,20.05-3.9,25.52-15.64C79,196,91.73,199.93,99,199.93c23.68,0,27.32-17.61,27.32-17.61-1.83,2-5.47,3.91-10.94,3.91-9.11,0-10.93-17.61-23.68-17.61a21.27,21.27,0,0,0-18.22,9.78,21.27,21.27,0,0,0-18.22-9.78c-12.75,0-14.58,17.61-23.69,17.61-5.47,0-9.11-2-10.93-3.91C20.67,182.32,24.31,199.93,48,199.93Z"/></g><text class="cls-7" transform="translate(128.62 136)">M<tspan class="cls-8" x="58.36" y="0">Y</tspan><tspan class="cls-9" x="93.85" y="0">OWN</tspan></text><text class="cls-10" transform="translate(128.62 191.01)">RECIPES</text></svg>