<svg id="Warstwa_1" data-name="Warstwa 1" xmlns="http://www.w3.org/2000/svg" viewBox="0 0 1850.5 629"><defs><style>.cls-1,.cls-2,.cls-4{fill:#fff;}.cls-2,.cls-4{isolation:isolate;font-family:SegoeUI-Bold, Segoe UI;font-weight:700;}.cls-2{font-size:320px;}.cls-3{letter-spacing:-0.02em;}.cls-4{font-size:337.73px;}</style></defs><title>myownrecipes-logo</title><path class="cls-1" d="M451.9,144V384h-.3s-171.9-68.9-348.7,0V144Z"/><polygon class="cls-1" points="456.8 358.4 456.8 358.5 456.5 358.5 456.8 358.4"/><circle class="cls-1" cx="277.7" cy="114" r="114"/><circle class="cls-1" cx="152.8" cy="162.6" r="101.8"/><circle class="cls-1" cx="402.6" cy="162.6" r="101.8"/><g id="Layer_2" data-name="Layer 2"><path class="cls-1" d="M143.4,629c38.3,0,105.2-20.5,133.9-82.1C306,608.5,372.9,629,411.2,629c124.3,0,143.4-92.4,143.4-92.4-9.6,10.3-28.7,20.5-57.4,20.5-47.8,0-57.4-92.4-124.3-92.4S277.3,516,277.3,516s-28.7-51.3-95.6-51.3-76.5,92.4-124.3,92.4c-28.7,0-47.8-10.3-57.4-20.5C0,536.6,19.1,629,143.4,629Z"/></g><text class="cls-2" transform="translate(566.51 293.5)">M<tspan class="cls-3" x="306.25" y="0">Y</tspan><tspan x="492.5" y="0">OWN</tspan></text><text class="cls-4" transform="translate(566.51 582.2)">RECIPES</text></svg>